Release Title 

Shank 2010 DvDRip XviD By Cazzabear.NWRG 

Release Date 

26 March 2010 (UK) 

Release Length 

01:30:00 

Storyline 

An action film for the youth generation, set in a decaying future London. A gang set out on a chase to avenge the murder of one of their own. 

Cast 

Kedar Williams-Stirling ... Junior 

Ashley Bashy Thomas ... Rager 

Adam Deacon ... Kickz 

Michael Socha ... Craze 

Jan Uddin ... Sweet Boy 

Kaya Scodelario ... Tasha 

Jennie Jacques ... Ree Ree 

Rheanne Murray ... Lexy 

Jerome Holder ... Tugz 

Colin Salmon ... Boogie 

Terry Stone ... Papa 

Robbie Gee ... Beano 

Luke de Woolfson ... Whisper 

Robert Fucilla ... Breezer 

Eddie Kadi ... Reggy 


Genre 

Action 

Language 

ENGLISH 

Original Source 

THE STREET VENDOR YOU KNOW WHO THEY ARE 



Video 

Video
ID : 0
Format : MPEG-4 Visual
Format profile : Advanced Simple@L5
Format settings, BVOP : Yes
Format settings, QPel : No
Format settings, GMC : No warppoints
Format settings, Matrix : Custom
Codec ID : XVID
Codec ID/Hint : XviD
Duration : 1h 30mn
Bit rate : 963 Kbps
Width : 688 pixels
Height : 288 pixels
Display aspect ratio : 2.35:1
Frame rate : 25.000 fps
Color space : YUV
Chroma subsampling : 4:2:0
Bit depth : 8 bits
Scan type : Progressive
Bits/(Pixel*Frame) : 0.194
Stream size : 622 MiB (89%)
Writing library : XviD 1.2.1 (UTC 2008-12-04)


Audio 

Audio
ID : 1
Format : MPEG Audio
Format version : Version 1
Format profile : Layer 3
Mode : Joint stereo
Mode extension : MS Stereo
Codec ID : 55
Codec ID/Hint : MP3
Duration : 1h 30mn
Bit rate mode : Variable
Bit rate : 112 Kbps
Nominal bit rate : 128 Kbps
Channel(s) : 2 channels
Sampling rate : 48.0 KHz
Stream size : 72.4 MiB (10%)
Alignment : Aligned on interleaves
Interleave, duration : 24 ms (0.60 video frame)
Interleave, preload duration : 393 ms
Writing library : LAME3.98r
Encoding settings : -m j -V 4 -q 2 -lowpass 17 --abr 128


Size of file 

702mb 

Notes 

GREETS TO ALL WARRIORS PAST AND PRESENT 

 
http://www.imdb.com/title/tt1320296/


Screens

 
http://postimg.com/image/19000/18380.jpg